<?xml version="1.0" encoding="UTF-8" standalone="no"?>
<!-- Created with Inkscape (http://www.inkscape.org/) -->

<svg
   width="215"
   height="187.33626"
   viewBox="0 0 56.885417 49.56605"
   version="1.1"
   id="svg1"
   inkscape:version="1.4.4 (dcaf3e7d9e, 2026-05-05)"
   sodipodi:docname="Logo.svg"
   xmlns:inkscape="http://www.inkscape.org/namespaces/inkscape"
   xmlns:sodipodi="http://sodipodi.sourceforge.net/DTD/sodipodi-0.dtd"
   xmlns="http://www.w3.org/2000/svg"
   xmlns:svg="http://www.w3.org/2000/svg">
  <sodipodi:namedview
     id="namedview1"
     pagecolor="#ffffff"
     bordercolor="#000000"
     borderopacity="0.25"
     inkscape:showpageshadow="2"
     inkscape:pageopacity="0.0"
     inkscape:pagecheckerboard="0"
     inkscape:deskcolor="#ffffff"
     inkscape:document-units="mm"
     inkscape:zoom="0.35355339"
     inkscape:cx="1128.5424"
     inkscape:cy="-424.26407"
     inkscape:window-width="2259"
     inkscape:window-height="1213"
     inkscape:window-x="0"
     inkscape:window-y="0"
     inkscape:window-maximized="1"
     inkscape:current-layer="layer1"
     inkscape:export-bgcolor="#ffffff00">
    <inkscape:page
       x="0"
       y="0"
       width="56.885418"
       height="49.566051"
       id="page2"
       margin="0"
       bleed="0" />
  </sodipodi:namedview>
  <defs
     id="defs1">
    <inkscape:path-effect
       effect="bspline"
       id="path-effect11-1-7-4-8"
       is_visible="true"
       lpeversion="1.3"
       weight="33.333333"
       steps="2"
       helper_size="0"
       apply_no_weight="true"
       apply_with_weight="true"
       only_selected="false"
       uniform="false" />
    <inkscape:path-effect
       effect="bspline"
       id="path-effect10-8-3-0-0"
       is_visible="true"
       lpeversion="1.3"
       weight="30"
       steps="2"
       helper_size="0"
       apply_no_weight="true"
       apply_with_weight="true"
       only_selected="false"
       uniform="false" />
  </defs>
  <g
     inkscape:label="Capa 1"
     inkscape:groupmode="layer"
     id="layer1"
     transform="translate(-364.26962,-7.4666794)">
    <g
       id="g3-4-7"
       transform="matrix(1.2426681,0,0,1.2426681,67.807856,-6.420137)"
       style="fill:#ffffff;fill-opacity:1"
       inkscape:export-filename="g3-4-7.svg"
       inkscape:export-xdpi="96"
       inkscape:export-ydpi="96">
      <g
         id="g1-2-2-6-5"
         transform="matrix(0.38540206,0,0,0.38540206,216.84893,-16.968988)"
         style="fill:#ffffff;fill-opacity:1">
        <path
           style="fill:#ffffff;fill-opacity:1;stroke-width:0.271727"
           d="M 98.663023,132.08259 113.23032,93.326052 c 0,0 -3.11772,-8.385604 -10.05197,-9.245666 -6.934251,-0.860063 -0.0538,0.05375 -0.0538,0.05375 L 83.181908,137.13546 Z"
           id="path1-0-9-9-6" />
        <path
           style="fill:#ffffff;fill-opacity:1;stroke-width:1.027"
           d="m 403.17943,302.9856 c 0.57563,0.67721 2.675,-2.43797 5.55316,-5.6886 2.87816,-3.25063 6.53511,-6.6367 10.09049,-9.41327 3.55537,-2.77658 7.00917,-4.94367 12.56233,-7.17848 5.55315,-2.2348 13.20566,-4.53733 20.11324,-5.41771 6.90759,-0.88038 13.07024,-0.3386 18.11548,0.54177 5.04525,0.88038 8.9731,2.09937 13.67974,4.60506 4.70663,2.50569 10.19207,6.29809 14.42465,10.22593 4.23259,3.92784 7.21234,7.99113 15.67751,27.4949 8.46518,19.50376 22.41579,54.44801 37.1452,67.89071 14.7294,13.4427 30.23761,5.38386 33.04804,-11.51264 2.81044,-16.89649 -7.07688,-42.63062 -13.51042,-58.37585 -6.43353,-15.74523 -9.41328,-21.50155 -12.22371,-26.34363 -2.81044,-4.84208 -5.45158,-8.76993 -7.14461,-11.17404 -1.69304,-2.40411 -2.43797,-3.28448 -3.41993,-4.26644 -0.98196,-0.98196 -2.20095,-2.06551 -3.28449,-3.08133 -1.08354,-1.01582 -2.03164,-1.96392 -2.97974,-2.94588 -0.9481,-0.98196 -1.8962,-1.99778 -3.28449,-3.04746 -1.38829,-1.04968 -3.21677,-2.13323 -4.77437,-3.14905 -1.55759,-1.01582 -2.84429,-1.96392 -4.06328,-2.87816 -1.21898,-0.91424 -2.37025,-1.79462 -3.58923,-2.53956 -1.21899,-0.74493 -2.50569,-1.35443 -4.23259,-2.09936 -1.7269,-0.74494 -3.89398,-1.62531 -5.92562,-2.47183 -2.03165,-0.84652 -3.92784,-1.65917 -5.8579,-2.26867 -1.93006,-0.60949 -3.89399,-1.01582 -6.60284,-1.55759 -2.70886,-0.54177 -6.16265,-1.21899 -9.04081,-1.59145 -2.87816,-0.37247 -5.18069,-0.44019 -7.55094,-0.44019 -2.37025,0 -4.80822,0.0677 -6.87372,0.0677 -2.06551,0 -3.75854,-0.0677 -5.79019,0.0677 -2.03164,0.13545 -4.40188,0.47405 -6.70441,0.9481 -2.30253,0.47405 -4.53733,1.08355 -7.5848,2.06551 -3.04746,0.98196 -6.90759,2.33638 -11.07245,3.99556 -4.16487,1.65917 -8.63449,3.62309 -11.81739,5.24841 -3.18291,1.62531 -5.0791,2.91201 -8.49903,5.99334 -3.41993,3.08132 -8.3636,7.95727 -12.49461,13.03637 -4.131,5.07911 -7.44935,10.36138 -9.58257,15.23732 -2.13323,4.87594 -3.08133,9.34556 -2.5057,10.02277 z"
           id="path2-2-3-22-9"
           sodipodi:nodetypes="aaaaaaaaaaaaaaaaaaaaaaaaaaaaaaaaaaaaa"
           inkscape:path-effect="#path-effect11-1-7-4-8"
           inkscape:original-d="m 401.6557,306.778 c 2.09936,-3.11519 4.19873,-6.23037 6.29809,-9.34556 3.65696,-3.38607 7.31391,-6.77214 10.97087,-10.15821 3.45379,-2.16708 6.90759,-4.33417 10.36138,-6.50125 7.65252,-2.30253 15.30503,-4.60506 22.95755,-6.90759 6.16265,0.54177 12.3253,1.08355 18.48795,1.62532 3.92784,1.21898 7.85569,2.43797 11.78353,3.65695 5.48543,3.7924 10.97087,7.5848 16.4563,11.3772 2.97974,4.06328 5.95949,8.12657 8.93923,12.18985 13.95061,34.94425 27.90122,69.8885 41.85183,104.83275 15.5082,-8.05885 31.01641,-16.11769 46.52461,-24.17654 -9.88733,-25.73414 -19.77465,-51.46827 -29.66198,-77.20241 -2.97974,-5.75632 -5.95949,-11.51264 -8.93923,-17.26896 -2.64113,-3.92784 -5.28227,-7.85569 -7.9234,-11.78353 -0.74494,-0.88038 -1.48987,-1.76075 -2.23481,-2.64113 -1.21898,-1.08354 -2.43797,-2.16709 -3.65695,-3.25063 -0.9481,-0.9481 -1.8962,-1.8962 -2.8443,-2.8443 -0.9481,-1.01582 -1.8962,-2.03164 -2.8443,-3.04746 -1.82848,-1.08354 -3.65696,-2.16709 -5.48544,-3.25063 -1.28671,-0.9481 -2.57341,-1.8962 -3.86012,-2.8443 -1.15126,-0.88038 -2.30253,-1.76076 -3.45379,-2.64114 -1.28671,-0.60949 -2.57341,-1.21899 -3.86012,-1.82848 -2.16709,-0.88038 -4.33417,-1.76075 -6.50126,-2.64113 -1.8962,-0.81266 -3.79239,-1.62531 -5.68859,-2.43797 -1.96392,-0.40633 -3.92785,-0.81266 -5.89177,-1.21899 -3.45379,-0.67721 -6.90758,-1.35443 -10.36137,-2.03164 -2.30253,-0.0677 -4.60506,-0.13544 -6.90759,-0.20316 -2.43797,0.0677 -4.87594,0.13544 -7.31391,0.20316 -1.69304,-0.0677 -3.38607,-0.13544 -5.07911,-0.20316 -2.37025,0.33861 -4.74049,0.67721 -7.11074,1.01582 -2.23481,0.60949 -4.46961,1.21899 -6.70442,1.82848 -3.86012,1.35443 -7.72025,2.70885 -11.58037,4.06328 -4.46961,1.96392 -8.93923,3.92784 -13.40884,5.89176 -1.8962,1.28671 -3.79239,2.57341 -5.68859,3.86012 -4.94366,4.87594 -9.88733,9.75189 -14.83099,14.62783 -3.31835,5.28227 -6.6367,10.56454 -9.95505,15.84681 -0.9481,4.46961 -1.8962,8.93923 -2.8443,13.40884 z"
           transform="matrix(0.26458333,0,0,0.26458333,-19.918016,7.857397)" />
        <path
           style="fill:#ffffff;fill-opacity:1;stroke-width:0.271727"
           d="m 142.47243,161.43221 -7.41804,-19.08263 8.9769,-15.31985 10.482,28.22078 c 0,0 -2.90271,2.7952 -2.58018,3.38649 0.32252,0.5913 -4.08529,-1.93513 -9.46068,2.79521 z"
           id="path5-3-1-4-8" />
        <path
           style="fill:#ffffff;fill-opacity:1;stroke-width:0.271727"
           d="m 125.86248,146.70365 c 0.26877,-1.3976 7.36428,-19.88894 7.36428,-19.88894 0,0 9.78321,-5.5904 10.26699,-4.8916 0.48379,0.6988 -12.63216,22.57663 -12.63216,22.57663 z"
           id="path6-7-9-7-7" />
        <path
           style="fill:#ffffff;fill-opacity:1;stroke-width:0.271727"
           d="m 111.77897,115.20388 c 0.16126,0.21501 4.56908,1.61261 6.39671,2.84895 1.82763,1.23634 6.71923,1.02133 7.63305,0.48379 0.91381,-0.53754 25.85561,-13.43847 25.85561,-13.43847 0,0 2.04265,-0.59129 4.78409,-0.64505 2.74145,-0.0538 -3.65526,2.6877 -3.65526,2.6877 0,0 -0.32252,2.47267 1.29009,2.04264 1.61262,-0.43003 7.41804,-3.97778 7.41804,-3.97778 0,0 4.56908,-0.64505 5.64415,0.64504 1.07508,1.2901 -1.45135,4.19281 -1.45135,4.19281 l -19.40515,11.66459 c 0,0 0.10751,-3.22524 -4.78409,-2.04265 -4.89161,1.18258 -11.55708,6.39671 -11.55708,6.39671 l -0.43004,0.10751 0.53754,-1.72013 v -0.37628 -0.59129 l -0.21501,-0.64504 -0.32253,-0.96757 -0.43003,-0.6988 -0.48378,-0.6988 -1.07508,-0.69881 -0.75255,-0.37627 -1.45136,-0.16126 -1.29009,0.48378 c 0,0 -0.96757,0.48379 -1.18258,0.5913 -0.21502,0.1075 -1.61262,0.64504 -2.25767,1.02132 -0.64504,0.37628 -5.37539,3.60151 -5.37539,3.60151 l -8.27809,-7.47179 z"
           id="path7-5-4-7-2" />
        <path
           style="fill:#ffffff;fill-opacity:1;stroke-width:0.271727"
           d="m 126.40002,120.7674 c 0.0538,0.21502 -0.16126,3.1446 1.69325,3.92403 1.85451,0.77944 -3.65527,3.0371 -7.04176,3.7359 -3.38649,0.6988 -4.46157,0.96757 -5.53665,0.64505 -1.07508,-0.32253 0.53754,-2.01577 0.64505,-2.17704 0.10751,-0.16126 10.24011,-6.12794 10.24011,-6.12794 z"
           id="path8-9-7-54-8" />
        <path
           style="fill:#ffffff;fill-opacity:1;stroke-width:0.271727"
           d="m 112.43185,128.80435 c 0,0 1.52039,3.04077 3.42088,2.7367 1.90048,-0.30408 7.06981,-1.1403 7.06981,-1.1403 l -29.57157,16.64826 c 0,0 -8.894278,5.09331 -1.824469,11.17486 7.06981,6.08156 4.409128,11.02283 4.409128,11.02283 0,0 -1.976504,6.91777 -7.525925,6.84175 -5.549421,-0.076 -24.478262,0.22806 -24.478262,0.22806 0,0 -5.245344,-0.68418 -6.841752,-5.16933 -1.596409,-4.48515 -0.532135,-9.65447 2.660682,-11.47894 3.192817,-1.82446 9.578451,-1.06427 9.578451,-1.06427 0,0 -4.181071,-10.64272 8.514177,-15.81204 12.695248,-5.16933 34.58885,-13.98758 34.58885,-13.98758 z"
           id="path9-2-8-8-2" />
        <path
           style="fill:#ffffff;fill-opacity:1;stroke-width:1.027"
           d="m 686.14198,555.5207 c -3.71474,0.30721 -4.63655,0.57059 -5.25907,0.76213 -0.62252,0.19155 -0.94576,0.31126 -1.22111,0.44295 -0.27534,0.13169 -0.5028,0.27534 -0.77216,0.43097 -0.26936,0.15563 -0.58062,0.32324 -0.86794,0.44295 -0.28731,0.11972 -0.55069,0.19155 -0.90385,0.34718 -0.35317,0.15563 -0.79611,0.39506 -1.25702,0.65245 -0.4609,0.25739 -0.93977,0.53273 -1.35278,0.79611 -0.41302,0.26337 -0.7602,0.51478 -1.16125,0.83202 -0.40104,0.31725 -0.85596,0.70034 -1.263,1.03554 -0.40703,0.33521 -0.76617,0.62252 -1.21511,0.97568 -0.44893,0.35317 -0.98766,0.77217 -1.53236,1.19716 -0.54471,0.42499 -1.0954,0.85597 -1.58025,1.3049 -0.48485,0.44893 -0.90385,0.91583 -1.3049,1.3887 -0.40105,0.47288 -0.78414,0.95175 -1.33483,1.55032 -0.55069,0.59858 -1.26899,1.31688 -1.79574,1.8556 -0.52674,0.53872 -0.86195,0.89786 -1.35278,1.57426 -0.49084,0.67639 -1.1373,1.67003 -1.63412,2.40628 -0.49682,0.73625 -0.844,1.21512 -1.19117,1.84363 -0.34718,0.6285 -0.69435,1.40665 -1.07744,2.33444 -0.38309,0.9278 -0.8021,2.00525 -1.13132,2.90312 -0.32921,0.89786 -0.56865,1.61616 -0.82005,2.39431 -0.2514,0.77815 -0.51478,1.61616 -0.95772,1.74186 -0.44295,0.1257 -1.06547,-0.4609 -1.55032,-0.85597 -0.48485,-0.39506 -0.83202,-0.59857 -1.16722,-0.79012 -0.33521,-0.19154 -0.65845,-0.37112 -1.0595,-0.55668 -0.40104,-0.18556 -0.87991,-0.3771 -1.34081,-0.54471 -0.46091,-0.1676 -0.90385,-0.31125 -1.32884,-0.43695 -0.42499,-0.12571 -0.83203,-0.23345 -1.37075,-0.36514 -0.53872,-0.13169 -1.20912,-0.28732 -2.05311,-0.35317 -0.844,-0.0658 -1.86159,-0.0419 -2.84925,-0.0359 -0.98765,0.006 -1.94537,-0.006 -3.05873,0.0479 -1.11336,0.0539 -2.38234,0.17359 -3.48971,0.34717 -1.10737,0.17359 -2.05313,0.40105 -2.94501,0.73626 -0.89188,0.3352 -1.72989,0.77815 -2.5679,1.20314 -0.83801,0.42499 -1.67602,0.83203 -2.30453,1.19117 -0.6285,0.35915 -1.04751,0.67041 -1.83164,1.263 -0.78414,0.59259 -1.93341,1.46652 -2.69361,2.13094 -0.76019,0.66442 -1.13131,1.11934 -1.67003,1.65207 -0.53872,0.53274 -1.24505,1.14329 -1.81968,1.688 -0.57464,0.5447 -1.01758,1.02357 -1.42462,1.5563 -0.40703,0.53274 -0.77815,1.11934 -1.10138,1.72391 -0.32324,0.60456 -0.59858,1.22708 -0.82604,1.64608 -0.22746,0.41901 -0.40704,0.6345 -0.56865,1.04154 -0.16162,0.40703 -0.30527,1.0056 -0.45492,1.67002 -0.14964,0.66443 -0.30527,1.39469 -0.40104,1.97531 -0.0958,0.58063 -0.13169,1.0116 -0.40704,0.89188 -0.27535,-0.11971 -0.79012,-0.79011 -1.33483,-1.28693 -0.54471,-0.49682 -1.11934,-0.82006 -1.59821,-1.11935 -0.47886,-0.29929 -0.86195,-0.57463 -1.43658,-0.88589 -0.57464,-0.31126 -1.34082,-0.65844 -1.8975,-0.92181 -0.55667,-0.26338 -0.90385,-0.44295 -1.46052,-0.6345 -0.55668,-0.19154 -1.32286,-0.39506 -2.05911,-0.55069 -0.73625,-0.15563 -1.44258,-0.26337 -2.03517,-0.37112 -0.59259,-0.10774 -1.07146,-0.21549 -1.73588,-0.26936 -0.66442,-0.0539 -1.5144,-0.0539 -3.07669,0.0299 -1.56229,0.0838 -3.83689,0.25141 -5.16574,0.38309 -1.32885,0.13169 -1.71193,0.22746 -2.21474,0.40703 -0.5028,0.17958 -1.12532,0.44295 -1.74784,0.7183 -0.62252,0.27535 -1.24505,0.56266 -2.13094,1.07744 -0.8859,0.51478 -2.03517,1.25701 -2.98691,1.96932 -0.95174,0.71231 -1.70594,1.39469 -2.36438,2.05313 -0.65844,0.65843 -1.2211,1.29293 -2.04116,2.68761 -0.82005,1.39469 -1.89749,3.54958 -2.56191,4.93229 -0.66442,1.38272 -0.91583,1.99327 -1.1373,2.98093 -0.22147,0.98765 -0.41302,2.3524 -0.43097,4.08828 -0.018,1.73588 0.13767,3.84287 0.5447,5.49495 0.40704,1.65208 1.06547,2.84923 1.69398,4.02843 0.62851,1.1792 1.22708,2.34045 1.71792,3.06473 0.49083,0.72428 0.87392,1.01159 1.54433,1.50243 0.67041,0.49083 1.62813,1.18518 2.54994,1.94538 0.92182,0.76019 1.80771,1.58623 3.04079,2.41227 1.23307,0.82604 2.81331,1.65207 22.00972,1.98728 19.19641,0.3352 56.00898,0.17957 75.88178,-0.30528 19.8728,-0.48485 22.80584,-1.29891 24.82304,-1.98728 2.01721,-0.68836 3.1186,-1.25103 4.34569,-1.93341 1.22708,-0.68238 2.57986,-1.48447 3.64533,-2.13094 1.06547,-0.64646 1.84363,-1.1373 2.56192,-1.72391 0.7183,-0.5866 1.37673,-1.26898 2.72952,-2.65768 1.35279,-1.3887 3.39992,-3.48373 4.59708,-4.72278 1.19716,-1.23906 1.54433,-1.62215 2.03517,-2.17883 0.49083,-0.55668 1.12533,-1.28694 1.68799,-2.04714 0.56266,-0.76019 1.0535,-1.55032 1.61616,-2.39431 0.56266,-0.844 1.19716,-1.74186 1.66405,-2.65769 0.46689,-0.91582 0.76618,-1.84961 1.02357,-2.75945 0.25739,-0.90984 0.47287,-1.79573 0.68836,-2.69958 0.21549,-0.90386 0.43098,-1.82567 0.58661,-2.72953 0.15563,-0.90385 0.25141,-1.78974 0.38309,-3.62139 0.13169,-1.83165 0.29929,-4.60906 0.35316,-6.26114 0.0539,-1.65207 -0.006,-2.17881 -0.0299,-2.95697 -0.0239,-0.77815 -0.012,-1.8077 -0.0838,-2.57388 -0.0718,-0.76619 -0.22746,-1.26899 -0.44893,-2.20278 -0.22148,-0.93378 -0.50879,-2.29853 -0.81407,-3.38196 -0.30527,-1.08343 -0.62851,-1.88552 -1.17321,-2.96297 -0.54471,-1.07744 -1.31089,-2.43022 -2.05313,-3.59745 -0.74223,-1.16723 -1.46053,-2.14889 -2.09502,-3.01683 -0.63449,-0.86794 -1.18519,-1.62215 -1.72989,-2.30453 -0.54471,-0.68238 -1.08343,-1.29293 -2.81332,-3.13655 -1.72989,-1.84362 -4.65096,-4.92032 -6.38085,-6.64422 -1.72989,-1.72391 -2.26861,-2.09502 -2.86719,-2.44819 -0.59858,-0.35316 -1.25701,-0.68836 -2.22072,-1.1373 -0.96372,-0.44893 -2.2327,-1.0116 -3.84819,-1.53695 -1.61549,-0.52535 -3.57747,-1.0134 -4.80819,-1.32514 -1.23072,-0.31174 -1.73016,-0.44719 -2.0984,-0.5403 -0.36823,-0.0931 -0.60526,-0.14392 -3.97756,0.006 -3.37229,0.15013 -9.88007,0.50119 -13.59481,0.80841 z"
           id="path10-2-4-12-9"
           sodipodi:nodetypes="aaaaaaaaaaaaaaaaaaaaaaaaaaaaaaaaaaaaaaaaaaaaaaaaaaaaaaaaaaaaaaaaaaaaaaaaaaaaaaaaaaaaaaaaaaaaaaaaaaaaaaaaaa"
           inkscape:path-effect="#path-effect10-8-3-0-0"
           inkscape:original-d="m 683.34905,555.56454 c -0.92181,0.26337 -1.84362,0.52675 -2.76543,0.79012 -0.32323,0.11972 -0.64647,0.23943 -0.9697,0.35915 -0.22746,0.14366 -0.45492,0.28731 -0.68238,0.43097 -0.31126,0.1676 -0.62252,0.33521 -0.93378,0.50281 -0.26338,0.0718 -0.52675,0.14366 -0.79013,0.21549 -0.44295,0.23943 -0.88589,0.47886 -1.32884,0.71829 -0.47886,0.27535 -0.95773,0.55069 -1.43659,0.82604 -0.34717,0.2514 -0.69435,0.50281 -1.04152,0.75421 -0.45492,0.38309 -0.90984,0.76618 -1.36476,1.14927 -0.35915,0.28732 -0.71829,0.57463 -1.07744,0.86195 -0.53872,0.41901 -1.07745,0.83801 -1.61617,1.25702 -0.55069,0.43097 -1.10138,0.86195 -1.65207,1.29292 -0.41901,0.46689 -0.83801,0.93379 -1.25702,1.40068 -0.38309,0.47886 -0.76618,0.95773 -1.14927,1.43659 -0.71829,0.71829 -1.43659,1.43659 -2.15488,2.15488 -0.3352,0.35915 -0.67041,0.71829 -1.00561,1.07744 -0.64647,0.99364 -1.29293,1.98728 -1.9394,2.98092 -0.34717,0.47886 -0.69435,0.95773 -1.04152,1.43659 -0.34718,0.77815 -0.69435,1.5563 -1.04153,2.33445 -0.419,1.07744 -0.83801,2.15489 -1.25701,3.23233 -0.23943,0.71829 -0.47887,1.43659 -0.7183,2.15488 -0.26337,0.83801 -0.52675,1.67602 -0.79012,2.51403 -0.62252,-0.58661 -1.24504,-1.17321 -1.86756,-1.75982 -0.34718,-0.20352 -0.69435,-0.40703 -1.04153,-0.61055 -0.32323,-0.17957 -0.64647,-0.35915 -0.9697,-0.53872 -0.47886,-0.19155 -0.95773,-0.38309 -1.43659,-0.57464 -0.44295,-0.14366 -0.88589,-0.28731 -1.32884,-0.43097 -0.40703,-0.10775 -0.81407,-0.21549 -1.2211,-0.32324 -0.67041,-0.15563 -1.34081,-0.31126 -2.01122,-0.46689 -1.01758,0.0239 -2.03517,0.0479 -3.05275,0.0718 -0.95773,-0.012 -1.91545,-0.0239 -2.87318,-0.0359 -1.26899,0.11971 -2.53797,0.23943 -3.80696,0.35914 -0.94575,0.22746 -1.89151,0.45492 -2.83726,0.68238 -0.83801,0.44295 -1.67602,0.8859 -2.51403,1.32885 -0.83801,0.40703 -1.67602,0.81407 -2.51403,1.2211 -0.419,0.31126 -0.83801,0.62252 -1.25701,0.93378 -1.14927,0.87392 -2.29854,1.74785 -3.44781,2.62177 -0.37112,0.45492 -0.74224,0.90984 -1.11336,1.36476 -0.70632,0.61055 -1.41265,1.2211 -2.11897,1.83165 -0.44295,0.47886 -0.88589,0.95773 -1.32884,1.43659 -0.37112,0.58661 -0.74224,1.17321 -1.11336,1.75982 -0.27535,0.62252 -0.55069,1.24504 -0.82604,1.86756 -0.17957,0.21549 -0.35915,0.43098 -0.53872,0.64647 -0.14366,0.59858 -0.28731,1.19715 -0.43097,1.79573 -0.15563,0.73027 -0.31126,1.46053 -0.46689,2.1908 -0.0359,0.43098 -0.0718,0.86195 -0.10775,1.29293 -0.51478,-0.67041 -1.02955,-1.34081 -1.54433,-2.01122 -0.57464,-0.32323 -1.14927,-0.64647 -1.72391,-0.9697 -0.38309,-0.27535 -0.76618,-0.55069 -1.14927,-0.82604 -0.76618,-0.34717 -1.53236,-0.69435 -2.29854,-1.04152 -0.34717,-0.17958 -0.69435,-0.35915 -1.04152,-0.53873 -0.76618,-0.20351 -1.53236,-0.40703 -2.29854,-0.61054 -0.70632,-0.10775 -1.41265,-0.21549 -2.11897,-0.32324 -0.47886,-0.10774 -0.95773,-0.21549 -1.43659,-0.32323 -0.84998,0 -1.69996,0 -2.54994,0 -2.2746,0.1676 -4.5492,0.33521 -6.8238,0.50281 -0.38309,0.0958 -0.76618,0.19154 -1.14927,0.28731 -0.62252,0.26338 -1.24504,0.52675 -1.86756,0.79013 -0.62252,0.28732 -1.24505,0.57463 -1.86757,0.86195 -1.14927,0.74224 -2.29854,1.48447 -3.44781,2.22671 -0.75421,0.68238 -1.50841,1.36476 -2.26262,2.04714 -0.56267,0.63449 -1.12533,1.26899 -1.688,1.90348 -1.07744,2.15488 -2.15488,4.30977 -3.23232,6.46465 -0.2514,0.61055 -0.50281,1.2211 -0.75421,1.83165 -0.19154,1.36476 -0.38309,2.72951 -0.57463,4.09427 0.15563,2.107 0.31126,4.21399 0.46689,6.32099 0.65844,1.19716 1.31687,2.39431 1.97531,3.59147 0.59858,1.16124 1.19715,2.32249 1.79573,3.48373 0.38309,0.28732 0.76618,0.57463 1.14927,0.86195 0.95773,0.69435 1.91545,1.3887 2.87318,2.08305 0.8859,0.82604 1.77179,1.65208 2.65769,2.47812 1.58025,0.82604 3.16049,1.65207 4.74074,2.47811 36.81257,-0.15563 73.62514,-0.31126 110.43771,-0.46689 2.93303,-0.81407 5.86607,-1.62813 8.7991,-2.4422 1.10138,-0.56266 2.20277,-1.12533 3.30415,-1.68799 1.35279,-0.8021 2.70557,-1.60419 4.05836,-2.40629 0.77815,-0.49083 1.55631,-0.98167 2.33446,-1.4725 0.65844,-0.68238 1.31687,-1.36476 1.97531,-2.04714 2.04714,-2.09502 4.09427,-4.19005 6.14141,-6.28507 0.34718,-0.38309 0.69435,-0.76618 1.04153,-1.14927 0.63449,-0.73027 1.26899,-1.46053 1.90348,-2.1908 0.49083,-0.79012 0.98167,-1.58025 1.4725,-2.37037 0.63449,-0.89787 1.26899,-1.79573 1.90348,-2.6936 0.29929,-0.93378 0.59858,-1.86757 0.89787,-2.80135 0.21549,-0.8859 0.43097,-1.77179 0.64646,-2.65769 0.21549,-0.92181 0.43098,-1.84362 0.64647,-2.76543 0.0958,-0.8859 0.19155,-1.77179 0.28732,-2.65769 0.1676,-2.7774 0.3352,-5.55481 0.5028,-8.33221 -0.0599,-0.52675 -0.11971,-1.05349 -0.17957,-1.58024 0.012,-1.02956 0.0239,-2.05911 0.0359,-3.08867 -0.15563,-0.50281 -0.31126,-1.00561 -0.46689,-1.50842 -0.28732,-1.36476 -0.57463,-2.72951 -0.86195,-4.09427 -0.32323,-0.8021 -0.64647,-1.60419 -0.9697,-2.40629 -0.76618,-1.35279 -1.53236,-2.70557 -2.29854,-4.05836 -0.71829,-0.98167 -1.43659,-1.96333 -2.15488,-2.945 -0.55069,-0.75421 -1.10139,-1.50842 -1.65208,-2.26263 -0.53872,-0.61055 -1.07744,-1.2211 -1.61616,-1.83165 -2.92106,-3.07669 -5.84213,-6.15339 -8.76319,-9.23008 -0.53872,-0.37112 -1.07744,-0.74223 -1.61616,-1.11335 -0.65844,-0.33521 -1.31687,-0.67041 -1.97531,-1.00562 -1.26899,-0.56266 -2.53797,-1.12533 -3.80696,-1.68799 -1.96199,-0.48804 -3.92397,-0.97609 -5.88596,-1.46413 -0.49945,-0.13544 -0.99889,-0.27089 -1.49834,-0.40633 -0.23702,-0.0508 -0.47405,-0.10159 -0.71107,-0.15238 -6.50757,0.35105 -13.01535,0.70211 -19.52302,1.05317 z"
           transform="matrix(0.26458333,0,0,0.26458333,-19.918016,7.857397)" />
      </g>
      <path
         style="fill:#000000;fill-opacity:0;stroke-width:0.271727"
         d="m 278.77084,42.729165 c 0,0 1.45833,-0.229166 2.12498,-0.114583 0.66667,0.114583 -1.99999,-4.385416 -1.99999,-4.385416 l -3.625,0.572916 2.09375,3.895833 z"
         id="path3-8-9" />
    </g>
  </g>
</svg>
